<svg width="32" height="32" viewBox="0 0 32 32" fill="none" xmlns="http://www.w3.org/2000/svg">
<path d="M27 10.4999C27 9.70426 26.6839 8.94124 26.1213 8.37861C25.5587 7.81598 24.7956 7.49993 24 7.49993H23.25V6.77103C23.25 6.36742 22.9397 6.02103 22.5361 6.00087C22.4347 5.99598 22.3333 6.01174 22.2382 6.04717C22.1431 6.08261 22.0561 6.137 21.9826 6.20704C21.9091 6.27707 21.8506 6.3613 21.8106 6.45462C21.7706 6.54794 21.75 6.6484 21.75 6.74993V7.49993H11.25V6.77103C11.25 6.36742 10.9397 6.02103 10.5361 6.00087C10.4347 5.99598 10.3333 6.01174 10.2382 6.04717C10.1431 6.08261 10.0561 6.137 9.98261 6.20704C9.90911 6.27707 9.8506 6.3613 9.81062 6.45462C9.77063 6.54794 9.75001 6.6484 9.75 6.74993V7.49993H9C8.20435 7.49993 7.44129 7.81598 6.87868 8.37861C6.31607 8.94124 6 9.70426 6 10.4999V11.0624C6 11.1122 6.01975 11.1598 6.05492 11.195C6.09008 11.2302 6.13777 11.2499 6.1875 11.2499H26.8125C26.8622 11.2499 26.9099 11.2302 26.9451 11.195C26.9802 11.1598 27 11.1122 27 11.0624V10.4999ZM6 23.9999C6 24.7956 6.31607 25.5586 6.87868 26.1213C7.44129 26.6839 8.20435 26.9999 9 26.9999H24C24.7956 26.9999 25.5587 26.6839 26.1213 26.1213C26.6839 25.5586 27 24.7956 27 23.9999V12.8906C27 12.8533 26.9852 12.8175 26.9588 12.7911C26.9324 12.7647 26.8967 12.7499 26.8594 12.7499H6.14062C6.10333 12.7499 6.06756 12.7647 6.04119 12.7911C6.01482 12.8175 6 12.8533 6 12.8906V23.9999Z" fill="#222222"/>
</svg>
