<svg width="24" height="24" viewBox="0 0 24 24" fill="none" xmlns="http://www.w3.org/2000/svg">
<rect x="2" y="2" width="20" height="20" rx="10" fill="#00BF72"/>
<path fill-rule="evenodd" clip-rule="evenodd" d="M16.971 7.45248C17.092 7.60876 17.16 7.82068 17.16 8.04165C17.16 8.26262 17.092 8.47454 16.971 8.63082L10.8387 16.5475C10.7176 16.7037 10.5535 16.7915 10.3823 16.7915C10.2111 16.7915 10.047 16.7037 9.92594 16.5475L7.02117 12.7975C6.90358 12.6403 6.83852 12.4298 6.83999 12.2113C6.84146 11.9928 6.90935 11.7838 7.02903 11.6293C7.14871 11.4748 7.31061 11.3872 7.47986 11.3853C7.64911 11.3834 7.81217 11.4674 7.93391 11.6192L10.3823 14.78L16.0582 7.45248C16.1793 7.29626 16.3434 7.2085 16.5146 7.2085C16.6858 7.2085 16.8499 7.29626 16.971 7.45248Z" fill="#F7F5FF"/>
</svg>
