<svg width="11" height="10" viewBox="0 0 11 10" fill="none" xmlns="http://www.w3.org/2000/svg">
<path fill-rule="evenodd" clip-rule="evenodd" d="M10.5718 0.254606C10.6981 0.417679 10.7691 0.638824 10.7691 0.869409C10.7691 1.09999 10.6981 1.32114 10.5718 1.48421L4.17271 9.74536C4.04639 9.90839 3.87509 9.99997 3.69648 9.99997C3.51787 9.99997 3.34657 9.90839 3.22025 9.74536L0.189086 5.83219C0.0663854 5.66818 -0.00150926 5.44852 2.54635e-05 5.22051C0.00156019 4.99251 0.0724014 4.7744 0.197291 4.61317C0.32218 4.45194 0.491126 4.36049 0.66774 4.35851C0.844353 4.35653 1.0145 4.44418 1.14155 4.60258L3.69648 7.90095L9.61938 0.254606C9.7457 0.0915818 9.917 0 10.0956 0C10.2742 0 10.4455 0.0915818 10.5718 0.254606Z" fill="#F7F5FF"/>
</svg>
