<svg width="16" height="16" viewBox="0 0 16 16" fill="none" xmlns="http://www.w3.org/2000/svg">
<path d="M9.90535 3.43226C9.72491 3.43226 9.57185 3.36998 9.44618 3.24543C9.32052 3.12076 9.25768 2.9682 9.25768 2.78776C9.25768 2.6072 9.32002 2.45409 9.44468 2.32843C9.56924 2.20287 9.72179 2.14009 9.90235 2.14009C10.0828 2.14009 10.2358 2.20237 10.3615 2.32693C10.4872 2.45159 10.55 2.60415 10.55 2.78459C10.55 2.96515 10.4877 3.11826 10.363 3.24393C10.2385 3.36948 10.0859 3.43226 9.90535 3.43226ZM9.88618 13.8604C9.70563 13.8604 9.55257 13.7981 9.42702 13.6736C9.30135 13.5489 9.23852 13.3964 9.23852 13.2159C9.23852 13.0354 9.30079 12.8823 9.42535 12.7566C9.55002 12.631 9.70263 12.5683 9.88318 12.5683C10.0636 12.5683 10.2167 12.6305 10.3423 12.7551C10.4679 12.8798 10.5307 13.0323 10.5307 13.2128C10.5307 13.3933 10.4684 13.5464 10.3438 13.6721C10.2192 13.7976 10.0666 13.8604 9.88618 13.8604ZM12.6862 5.75543C12.5056 5.75543 12.3526 5.69309 12.227 5.56843C12.1013 5.44376 12.0385 5.2912 12.0385 5.11076C12.0385 4.93032 12.1008 4.77726 12.2253 4.65159C12.35 4.52593 12.5026 4.46309 12.6832 4.46309C12.8636 4.46309 13.0167 4.52543 13.1423 4.65009C13.2679 4.77465 13.3307 4.9272 13.3307 5.10776C13.3307 5.2882 13.2684 5.44126 13.1438 5.56693C13.0192 5.69259 12.8666 5.75543 12.6862 5.75543ZM12.6669 11.5566C12.4864 11.5566 12.3333 11.4943 12.2077 11.3698C12.082 11.2451 12.0192 11.0925 12.0192 10.9121C12.0192 10.7315 12.0815 10.5784 12.2062 10.4528C12.3308 10.3272 12.4834 10.2644 12.6638 10.2644C12.8444 10.2644 12.9975 10.3267 13.123 10.4513C13.2487 10.5759 13.3115 10.7285 13.3115 10.9089C13.3115 11.0895 13.2492 11.2426 13.1245 11.3683C13 11.4938 12.8474 11.5566 12.6669 11.5566ZM13.422 8.64643C13.2416 8.64643 13.0885 8.58409 12.9628 8.45943C12.8372 8.33487 12.7743 8.18232 12.7743 8.00176C12.7743 7.82132 12.8367 7.66826 12.9613 7.54259C13.0859 7.41693 13.2385 7.35409 13.419 7.35409C13.5995 7.35409 13.7525 7.41643 13.8782 7.54109C14.0038 7.66565 14.0667 7.8182 14.0667 7.99876C14.0667 8.1792 14.0043 8.33226 13.8797 8.45793C13.7551 8.58359 13.6026 8.64643 13.422 8.64643ZM8.00002 14.0669C7.16513 14.0669 6.37996 13.909 5.64452 13.5933C4.90918 13.2775 4.26479 12.843 3.71135 12.2898C3.1579 11.7365 2.72318 11.0916 2.40718 10.3549C2.09129 9.61837 1.93335 8.83132 1.93335 7.99376C1.93335 7.1562 2.09129 6.37148 2.40718 5.63959C2.72296 4.9077 3.15752 4.26504 3.71085 3.71159C4.26418 3.15815 4.9084 2.72343 5.64352 2.40743C6.37863 2.09154 7.16413 1.93359 8.00002 1.93359V2.80026C6.55557 2.80026 5.32779 3.30582 4.31668 4.31693C3.30557 5.32804 2.80002 6.55582 2.80002 8.00026C2.80002 9.4447 3.30557 10.6725 4.31668 11.6836C5.32779 12.6947 6.55557 13.2003 8.00002 13.2003V14.0669ZM7.99652 9.03359C7.70829 9.03359 7.46457 8.9332 7.26535 8.73243C7.06624 8.53154 6.96668 8.28748 6.96668 8.00026C6.96668 7.93193 6.96885 7.87059 6.97318 7.81626C6.97741 7.76204 6.9949 7.70498 7.02568 7.64509L5.83718 6.45026L6.45002 5.83743L7.64485 7.02593C7.71585 6.99515 7.83424 6.97548 8.00002 6.96693C8.28724 6.96693 8.53129 7.06771 8.73218 7.26926C8.93296 7.47071 9.03335 7.71554 9.03335 8.00376C9.03335 8.29198 8.93257 8.5357 8.73102 8.73493C8.52957 8.93404 8.28474 9.03359 7.99652 9.03359Z" fill="#222222"/>
</svg>
