<svg width="24" height="24" viewBox="0 0 24 24" fill="none" xmlns="http://www.w3.org/2000/svg">
<path fill-rule="evenodd" clip-rule="evenodd" d="M12.0001 2.00009C17.5221 2.00009 22.0001 6.47806 22.0001 12.0001C22.0001 17.5221 17.5221 22.0001 12.0001 22.0001C6.47806 22.0001 2.00009 17.5221 2.00009 12.0001C2.00009 6.47806 6.47806 2.00009 12.0001 2.00009ZM15.0001 9.00009C14.6096 8.60961 13.9766 8.60961 13.5861 9.00009L12.0001 10.5861L10.4141 9.00014C10.0236 8.60968 9.39056 8.60968 9.0001 9.00014C8.60964 9.3906 8.60964 10.0237 9.00011 10.4141L10.5861 12.0001L9.00009 13.5861C8.60963 13.9766 8.60964 14.6096 9.0001 15.0001C9.39056 15.3906 10.0236 15.3906 10.4141 15.0001L12.0001 13.4141L13.5861 15.0001C13.9766 15.3906 14.6096 15.3906 15.0001 15.0001C15.3906 14.6096 15.3906 13.9766 15.0001 13.5861L13.4141 12.0001L15.0001 10.4141C15.3906 10.0236 15.3906 9.39056 15.0001 9.00009Z" fill="#FF383C"/>
</svg>
