<svg width="24" height="24" viewBox="0 0 24 24" fill="none" xmlns="http://www.w3.org/2000/svg">
<path d="M7.99998 10H5.99998C5.46955 10 4.96084 10.2107 4.58577 10.5858C4.2107 10.9609 3.99998 11.4696 3.99998 12V19C3.99998 19.5304 4.2107 20.0391 4.58577 20.4142C4.96084 20.7893 5.46955 21 5.99998 21H18C18.5304 21 19.0391 20.7893 19.4142 20.4142C19.7893 20.0391 20 19.5304 20 19V12C20 11.4696 19.7893 10.9609 19.4142 10.5858C19.0391 10.2107 18.5304 10 18 10H16M7.99998 10V7C7.99998 5.93913 8.42141 4.92172 9.17156 4.17157C9.9217 3.42143 10.9391 3 12 3C13.0609 3 14.0783 3.42143 14.8284 4.17157C15.5786 4.92172 16 5.93913 16 7V10M7.99998 10H16M12 14V17" stroke="#8C8C8C" stroke-width="1.5" stroke-linecap="round" stroke-linejoin="round"/>
</svg>
