<svg width="32" height="32" viewBox="0 0 32 32" fill="none" xmlns="http://www.w3.org/2000/svg">
<rect x="0.666667" y="0.666667" width="30.6667" height="30.6667" rx="15.3333" fill="#E2E5F7"/>
<rect x="0.666667" y="0.666667" width="30.6667" height="30.6667" rx="15.3333" stroke="#E9E9E9" stroke-width="1.33333"/>
<path d="M16.1583 24.0072C19.7816 24.0072 22.9169 21.6797 23.9647 18.2165C24.0527 17.9365 23.9727 17.6246 23.7647 17.4166C23.5568 17.2087 23.2528 17.1287 22.9649 17.2167C22.341 17.4006 21.7012 17.4966 21.0613 17.4966C17.4461 17.4966 14.5027 14.5532 14.5027 10.938C14.5027 10.2981 14.5987 9.65827 14.7826 9.0344C14.8248 8.89548 14.8285 8.74771 14.7932 8.60686C14.758 8.46602 14.6852 8.3374 14.5825 8.23473C14.4798 8.13207 14.3512 8.05923 14.2104 8.02398C14.0695 7.98873 13.9217 7.9924 13.7828 8.03461C12.1061 8.54094 10.6376 9.57496 9.59567 10.9829C8.55377 12.3908 7.99415 14.0975 8.00005 15.849C8.00005 20.344 11.6633 24.0072 16.1583 24.0072Z" fill="#7583DC"/>
</svg>
