<svg width="32" height="32" viewBox="0 0 32 32" fill="none" xmlns="http://www.w3.org/2000/svg">
<rect x="0.5" y="0.5" width="31" height="31" rx="15.5" fill="#E9F5FF"/>
<rect x="0.5" y="0.5" width="31" height="31" rx="15.5" stroke="#E9E9E9"/>
<path d="M15.9525 12.9707C17.9526 12.9707 19.8712 13.7563 21.2855 15.1543C22.4583 16.3138 23.2016 17.8162 23.4222 19.4229H25.6429C26.1437 19.423 26.5501 19.8292 26.5501 20.3301C26.5501 20.8309 26.1437 21.2372 25.6429 21.2373H6.24057C5.73966 21.2373 5.33334 20.831 5.33334 20.3301C5.33334 19.8292 5.73966 19.4229 6.24057 19.4229H8.48276C8.70339 17.8163 9.44684 16.3137 10.6195 15.1543C12.0337 13.7563 13.9525 12.9709 15.9525 12.9707ZM23.9515 11.2754C24.2846 11.2754 24.6045 11.4069 24.8402 11.6396C25.0757 11.8726 25.2082 12.1883 25.2083 12.5176C25.2083 12.8471 25.0758 13.1635 24.8402 13.3965L23.9515 14.2754C23.8357 14.3937 23.6973 14.4887 23.5443 14.5537C23.3911 14.6187 23.2256 14.6528 23.0589 14.6543C22.8922 14.6557 22.726 14.6239 22.5716 14.5615C22.4174 14.499 22.2764 14.4065 22.1585 14.29C22.0409 14.1736 21.9472 14.0351 21.8841 13.8828C21.821 13.7303 21.7899 13.5662 21.7914 13.4014C21.7928 13.2364 21.8271 13.0725 21.8929 12.9209C21.9587 12.7696 22.0543 12.6321 22.1742 12.5176L23.0628 11.6396C23.2983 11.4069 23.6185 11.2756 23.9515 11.2754ZM7.87436 11.2783C8.17969 11.2593 8.48218 11.3508 8.72397 11.5361L8.84213 11.6396L9.7308 12.5176C9.95623 12.7412 10.0873 13.0419 10.097 13.3574C10.1067 13.6728 9.99454 13.9801 9.78354 14.2168C9.57234 14.4535 9.27714 14.6019 8.95932 14.6318C8.64162 14.6616 8.32409 14.5709 8.07162 14.3779L7.95346 14.2754L7.06479 13.3965C6.82929 13.1635 6.69662 12.847 6.69662 12.5176C6.69675 12.1884 6.8294 11.8725 7.06479 11.6396C7.28108 11.4259 7.56913 11.2974 7.87436 11.2783ZM15.9525 8C16.2857 8 16.6055 8.13137 16.8412 8.36426C17.0768 8.59719 17.2092 8.91278 17.2093 9.24219V10.4854C17.2093 10.8148 17.0768 11.1313 16.8412 11.3643C16.6055 11.5969 16.2856 11.7275 15.9525 11.7275C15.6194 11.7274 15.2994 11.597 15.0638 11.3643C14.8283 11.1313 14.6957 10.8147 14.6956 10.4854V9.24219C14.6958 8.91296 14.8284 8.59716 15.0638 8.36426C15.2994 8.13137 15.6193 8.00016 15.9525 8Z" fill="#EE5656"/>
</svg>
