<svg width="24" height="24" viewBox="21.717 17.717 24 24" fill="none" xmlns="http://www.w3.org/2000/svg">
<path d="M43.1646 31.292H35.292V39.1646C35.292 39.5822 35.1261 39.9827 34.8308 40.278C34.5355 40.5733 34.135 40.7392 33.7174 40.7392C33.2998 40.7392 32.8993 40.5733 32.6041 40.278C32.3088 39.9827 32.1429 39.5822 32.1429 39.1646V31.292H24.2702C23.8526 31.292 23.4521 31.1261 23.1568 30.8308C22.8616 30.5355 22.6957 30.135 22.6957 29.7174C22.6957 29.2998 22.8616 28.8993 23.1568 28.6041C23.4521 28.3088 23.8526 28.1429 24.2702 28.1429H32.1429V20.2702C32.1429 19.8526 32.3088 19.4521 32.6041 19.1568C32.8993 18.8616 33.2998 18.6957 33.7174 18.6957C34.135 18.6957 34.5355 18.8616 34.8308 19.1568C35.1261 19.4521 35.292 19.8526 35.292 20.2702V28.1429H43.1646C43.5822 28.1429 43.9827 28.3088 44.278 28.6041C44.5733 28.8993 44.7392 29.2998 44.7392 29.7174C44.7392 30.135 44.5733 30.5355 44.278 30.8308C43.9827 31.1261 43.5822 31.292 43.1646 31.292Z" fill="#1A1A1F"/>
</svg>
