<svg width="24" height="24" viewBox="0 0 24 24" fill="none" xmlns="http://www.w3.org/2000/svg">
<path d="M20.207 3.79303C21.3227 4.90885 21.9494 6.42213 21.9494 8.00003C21.9494 9.57793 21.3227 11.0912 20.207 12.207L12.207 20.207C11.0868 21.3014 9.58036 21.91 8.01435 21.9009C6.44834 21.8918 4.94907 21.2657 3.84171 20.1583C2.73436 19.051 2.10822 17.5517 2.0991 15.9857C2.08998 14.4197 2.69862 12.9132 3.793 11.793L11.793 3.79303C12.9088 2.67736 14.4221 2.0506 16 2.0506C17.5779 2.0506 19.0912 2.67736 20.207 3.79303ZM13.207 5.20703L8.913 9.50003L14.499 15.086L18.793 10.794C19.1641 10.4282 19.4592 9.99256 19.6612 9.5122C19.8632 9.03184 19.9681 8.51626 19.97 7.99516C19.9719 7.47406 19.8706 6.95774 19.6721 6.47595C19.4735 5.99415 19.1816 5.55641 18.8131 5.18793C18.4446 4.81945 18.0069 4.52753 17.5251 4.32897C17.0433 4.13042 16.527 4.02916 16.0059 4.03103C15.4848 4.0329 14.9692 4.13786 14.4888 4.33986C14.0085 4.54186 13.5728 4.83692 13.207 5.20803" fill="#1A1A1F"/>
</svg>
