<svg width="24" height="24" viewBox="0 0 24 24" fill="none" xmlns="http://www.w3.org/2000/svg">
<path d="M12.0372 6.66591L16.8276 11.4563L9.04881 19.2343C8.88295 19.4002 8.65797 19.4934 8.42336 19.4935H4.88472C4.65009 19.4935 4.42508 19.4003 4.25917 19.2344C4.09327 19.0685 4.00006 18.8434 4.00006 18.6088V15.0702C4.00011 14.8356 4.09335 14.6106 4.25927 14.4447L12.0372 6.66591ZM16.8197 4.2791C17.394 4.43291 17.9176 4.7352 18.3381 5.15558C18.7585 5.57597 19.0608 6.09963 19.2147 6.67392C19.3686 7.2482 19.3685 7.85287 19.2146 8.42714C19.0606 9.0014 18.7582 9.52502 18.3377 9.94535L18.0794 10.2046L13.289 5.41412L13.5482 5.1558C13.9686 4.73551 14.4923 4.43324 15.0665 4.27936C15.6408 4.12547 16.2454 4.12538 16.8197 4.2791Z" fill="#BBBBBB"/>
</svg>
