<svg width="32" height="32" viewBox="0 0 32 32" fill="none" xmlns="http://www.w3.org/2000/svg">
<rect x="0.666667" y="0.666667" width="30.6667" height="30.6667" rx="15.3333" fill="#FDFFEF"/>
<rect x="0.666667" y="0.666667" width="30.6667" height="30.6667" rx="15.3333" stroke="#E9E9E9" stroke-width="1.33333"/>
<path d="M18.8713 7.16486H13.1286C11.5476 7.16719 10.0321 7.79625 8.91423 8.91414C7.79634 10.032 7.16728 11.5475 7.16495 13.1285V18.8712C7.16495 20.4529 7.79326 21.9698 8.91165 23.0882C10.03 24.2065 11.5469 24.8349 13.1286 24.8349H18.8713C20.453 24.8349 21.9698 24.2065 23.0882 23.0882C24.2066 21.9698 24.8349 20.4529 24.8349 18.8712V13.1285C24.8326 11.5475 24.2036 10.032 23.0857 8.91414C21.9678 7.79625 20.4523 7.16719 18.8713 7.16486ZM12.5543 19.1572C12.3149 19.1572 12.0809 19.0862 11.8818 18.9532C11.6828 18.8202 11.5276 18.6312 11.436 18.41C11.3444 18.1888 11.3205 17.9455 11.3672 17.7107C11.4139 17.4759 11.5291 17.2602 11.6984 17.0909C11.8677 16.9216 12.0834 16.8064 12.3182 16.7597C12.553 16.713 12.7963 16.7369 13.0175 16.8285C13.2387 16.9202 13.4277 17.0753 13.5607 17.2743C13.6937 17.4734 13.7647 17.7074 13.7647 17.9468C13.7719 18.1097 13.7458 18.2724 13.6881 18.425C13.6304 18.5775 13.5423 18.7167 13.429 18.8341C13.3158 18.9515 13.1798 19.0446 13.0294 19.1077C12.8791 19.1709 12.7174 19.2027 12.5543 19.2014V19.1572ZM12.5543 15.526C12.3149 15.526 12.0809 15.455 11.8818 15.322C11.6828 15.189 11.5276 15 11.436 14.7788C11.3444 14.5576 11.3205 14.3143 11.3672 14.0795C11.4139 13.8447 11.5291 13.629 11.6984 13.4597C11.8677 13.2905 12.0834 13.1752 12.3182 13.1285C12.553 13.0818 12.7963 13.1057 13.0175 13.1974C13.2387 13.289 13.4277 13.4441 13.5607 13.6432C13.6937 13.8422 13.7647 14.0762 13.7647 14.3156C13.7659 14.4749 13.7354 14.6328 13.675 14.7802C13.6145 14.9276 13.5254 15.0615 13.4128 15.1741C13.3002 15.2867 13.1663 15.3759 13.0189 15.4363C12.8715 15.4967 12.7136 15.5272 12.5543 15.526ZM19.7548 18.6094H15.7614C15.5857 18.6094 15.4171 18.5396 15.2929 18.4153C15.1686 18.2911 15.0988 18.1225 15.0988 17.9468C15.0988 17.7711 15.1686 17.6025 15.2929 17.4783C15.4171 17.354 15.5857 17.2842 15.7614 17.2842H19.7548C19.9306 17.2842 20.0991 17.354 20.2234 17.4783C20.3476 17.6025 20.4174 17.7711 20.4174 17.9468C20.4174 18.1225 20.3476 18.2911 20.2234 18.4153C20.0991 18.5396 19.9306 18.6094 19.7548 18.6094ZM19.7548 14.9782H15.7614C15.5857 14.9782 15.4171 14.9084 15.2929 14.7842C15.1686 14.6599 15.0988 14.4914 15.0988 14.3156C15.0988 14.1399 15.1686 13.9713 15.2929 13.8471C15.4171 13.7228 15.5857 13.653 15.7614 13.653H19.7548C19.9306 13.653 20.0991 13.7228 20.2234 13.8471C20.3476 13.9713 20.4174 14.1399 20.4174 14.3156C20.4174 14.4914 20.3476 14.6599 20.2234 14.7842C20.0991 14.9084 19.9306 14.9782 19.7548 14.9782Z" fill="#FFD560"/>
</svg>
