<svg width="24" height="24" viewBox="0 0 24 24" fill="none" xmlns="http://www.w3.org/2000/svg">
<path d="M12 22C17.5228 22 22 17.5228 22 12C22 6.47715 17.5228 2 12 2C6.47715 2 2 6.47715 2 12C2 17.5228 6.47715 22 12 22Z" stroke="#1A1A1F" stroke-width="2" stroke-linecap="round"/>
<path d="M7.88101 16.244C8.37401 15.817 9.02301 15.509 9.72301 15.307C10.4641 15.0996 11.2304 14.9963 12 15C12.786 15 13.57 15.103 14.277 15.307C14.977 15.509 15.627 15.817 16.119 16.244" stroke="#1A1A1F" stroke-width="2" stroke-linecap="round"/>
<path d="M9 11.25C9.69036 11.25 10.25 10.6904 10.25 10C10.25 9.30964 9.69036 8.75 9 8.75C8.30964 8.75 7.75 9.30964 7.75 10C7.75 10.6904 8.30964 11.25 9 11.25Z" fill="#1A1A1F" stroke="#1A1A1F" stroke-width="0.5" stroke-linecap="round"/>
<path d="M15 11.25C15.6904 11.25 16.25 10.6904 16.25 10C16.25 9.30964 15.6904 8.75 15 8.75C14.3096 8.75 13.75 9.30964 13.75 10C13.75 10.6904 14.3096 11.25 15 11.25Z" fill="#1A1A1F" stroke="#1A1A1F" stroke-width="0.5" stroke-linecap="round"/>
</svg>
