<svg width="16" height="16" viewBox="0 0 16 16" fill="none" xmlns="http://www.w3.org/2000/svg">
<path d="M9.99996 12.6667C10.8 10.2147 11.684 9.33008 14 8.66675C11.684 8.00342 10.8 7.11875 9.99996 4.66675C9.19996 7.11875 8.31596 8.00342 5.99996 8.66675C8.31596 9.33008 9.19996 10.2147 9.99996 12.6667ZM4.66663 6.66675C5.06663 5.44008 5.50863 4.99808 6.66663 4.66675C5.50863 4.33541 5.06663 3.89341 4.66663 2.66675C4.26663 3.89341 3.82463 4.33541 2.66663 4.66675C3.82463 4.99808 4.26663 5.44008 4.66663 6.66675ZM5.66663 13.3334C5.86663 12.7201 6.08729 12.4994 6.66663 12.3334C6.08729 12.1674 5.86663 11.9467 5.66663 11.3334C5.46663 11.9467 5.24596 12.1674 4.66663 12.3334C5.24596 12.4994 5.46663 12.7201 5.66663 13.3334Z" fill="#9747FF" stroke="#9747FF" stroke-linejoin="round"/>
</svg>
