<svg width="24" height="24" viewBox="0 0 24 24" fill="none" xmlns="http://www.w3.org/2000/svg">
<path d="M20 6C20.2549 6.00028 20.5 6.09788 20.6854 6.27285C20.8707 6.44782 20.9822 6.68695 20.9972 6.94139C21.0121 7.19584 20.9293 7.44638 20.7657 7.64183C20.6022 7.83729 20.3701 7.9629 20.117 7.993L20 8H19.919L19 19C19 19.7652 18.7077 20.5015 18.1827 21.0583C17.6578 21.615 16.9399 21.9501 16.176 21.995L16 22H8.00001C6.40201 22 5.09601 20.751 5.00801 19.25L5.00301 19.083L4.08001 8H4.00001C3.74513 7.99972 3.49997 7.90212 3.31464 7.72715C3.1293 7.55218 3.01777 7.31305 3.00283 7.05861C2.9879 6.80416 3.07068 6.55362 3.23427 6.35817C3.39786 6.16271 3.62991 6.0371 3.88301 6.007L4.00001 6H20ZM10 10C9.73479 10 9.48044 10.1054 9.2929 10.2929C9.10536 10.4804 9.00001 10.7348 9.00001 11V17C9.00001 17.2652 9.10536 17.5196 9.2929 17.7071C9.48044 17.8946 9.73479 18 10 18C10.2652 18 10.5196 17.8946 10.7071 17.7071C10.8946 17.5196 11 17.2652 11 17V11C11 10.7348 10.8946 10.4804 10.7071 10.2929C10.5196 10.1054 10.2652 10 10 10ZM14 10C13.7348 10 13.4804 10.1054 13.2929 10.2929C13.1054 10.4804 13 10.7348 13 11V17C13 17.2652 13.1054 17.5196 13.2929 17.7071C13.4804 17.8946 13.7348 18 14 18C14.2652 18 14.5196 17.8946 14.7071 17.7071C14.8946 17.5196 15 17.2652 15 17V11C15 10.7348 14.8946 10.4804 14.7071 10.2929C14.5196 10.1054 14.2652 10 14 10ZM14 2C14.5304 2 15.0391 2.21071 15.4142 2.58579C15.7893 2.96086 16 3.46957 16 4C15.9997 4.25488 15.9021 4.50003 15.7272 4.68537C15.5522 4.8707 15.3131 4.98223 15.0586 4.99717C14.8042 5.01211 14.5536 4.92933 14.3582 4.76574C14.1627 4.60214 14.0371 4.3701 14.007 4.117L14 4H10L9.99301 4.117C9.9629 4.3701 9.83729 4.60214 9.64184 4.76574C9.44639 4.92933 9.19584 5.01211 8.9414 4.99717C8.68696 4.98223 8.44782 4.8707 8.27285 4.68537C8.09789 4.50003 8.00029 4.25488 8.00001 4C7.99985 3.49542 8.19041 3.00943 8.5335 2.63945C8.87659 2.26947 9.34685 2.04284 9.85001 2.005L10 2H14Z" fill="black"/>
</svg>
