<svg width="40" height="40" viewBox="0 0 40 40" fill="none" xmlns="http://www.w3.org/2000/svg">
<rect width="40" height="40" rx="20" fill="#F5F5F5"/>
<path d="M15.1976 24.7276C13.7512 23.7076 12.6671 22.2536 12.1024 20.5762C11.5377 18.8989 11.5217 17.0853 12.0568 15.3982C12.5918 13.7111 13.6501 12.2382 15.0782 11.1929C16.5064 10.1475 18.2303 9.58405 20.0002 9.58405C21.7701 9.58405 23.494 10.1475 24.9222 11.1929C26.3503 12.2382 27.4086 13.7111 27.9436 15.3982C28.4787 17.0853 28.4627 18.8989 27.898 20.5762C27.3333 22.2536 26.2492 23.7076 24.8028 24.7276L26.9726 29.686C27.0074 29.7653 27.0219 29.8521 27.0147 29.9385C27.0076 30.0249 26.9789 30.1081 26.9314 30.1806C26.884 30.2532 26.8191 30.3127 26.7428 30.3538C26.6665 30.3949 26.5812 30.4164 26.4945 30.4162H13.5049C13.4183 30.4163 13.3331 30.3949 13.257 30.3538C13.1808 30.3127 13.116 30.2533 13.0686 30.1809C13.0211 30.1086 12.9924 30.0255 12.9851 29.9393C12.9778 29.853 12.9921 29.7663 13.0268 29.687L15.1976 24.7276ZM22.2132 24.0057L23.6007 23.0255C24.6859 22.2608 25.4993 21.1703 25.9231 19.9122C26.347 18.6542 26.3592 17.2938 25.958 16.0283C25.5569 14.7628 24.7632 13.6579 23.692 12.8737C22.6208 12.0896 21.3278 11.6668 20.0002 11.6668C18.6726 11.6668 17.3796 12.0896 16.3084 12.8737C15.2372 13.6579 14.4435 14.7628 14.0424 16.0283C13.6412 17.2938 13.6535 18.6542 14.0773 19.9122C14.5011 21.1703 15.3146 22.2608 16.3997 23.0255L17.7861 24.0057L15.8934 28.3328H24.1059L22.2132 24.0057ZM15.957 18.9266L17.9778 18.4214C18.09 18.8728 18.3499 19.2737 18.7164 19.5602C19.0828 19.8468 19.5345 20.0024 19.9997 20.0024C20.4648 20.0024 20.9166 19.8468 21.283 19.5602C21.6494 19.2737 21.9094 18.8728 22.0216 18.4214L24.0424 18.9266C23.8158 19.8271 23.295 20.6262 22.5626 21.1971C21.8303 21.768 20.9283 22.078 19.9997 22.078C19.0711 22.078 18.1691 21.768 17.4367 21.1971C16.7044 20.6262 16.1836 19.8271 15.957 18.9266Z" fill="#8C8C8C"/>
</svg>
