<svg width="80" height="80" viewBox="0 0 80 80" fill="none" xmlns="http://www.w3.org/2000/svg">
<rect width="80" height="80" rx="40" fill="#F5F5F5"/>
<path d="M30.3948 49.455C27.502 47.415 25.3339 44.507 24.2044 41.1523C23.075 37.7975 23.0431 34.1703 24.1131 30.7962C25.1832 27.4221 27.2997 24.4763 30.1561 22.3856C33.0124 20.2949 36.4603 19.1679 40 19.1679C43.5397 19.1679 46.9876 20.2949 49.8439 22.3856C52.7003 24.4763 54.8168 27.4221 55.8869 30.7962C56.9569 34.1703 56.925 37.7975 55.7956 41.1523C54.6662 44.507 52.498 47.415 49.6052 49.455L53.9448 59.3717C54.0145 59.5304 54.0435 59.7041 54.0291 59.8768C54.0147 60.0496 53.9574 60.216 53.8625 60.3611C53.7675 60.5061 53.6378 60.6252 53.4852 60.7074C53.3326 60.7897 53.1619 60.8325 52.9885 60.8321H27.0094C26.8363 60.8324 26.6659 60.7895 26.5135 60.7073C26.3611 60.6252 26.2316 60.5064 26.1367 60.3616C26.0418 60.2169 25.9845 60.0508 25.9699 59.8783C25.9553 59.7058 25.9839 59.5324 26.0531 59.3738L30.3948 49.455ZM44.426 48.0113L47.201 46.0509C49.3713 44.5213 50.9982 42.3404 51.8458 39.8243C52.6935 37.3081 52.718 34.5874 51.9157 32.0564C51.1134 29.5254 49.5261 27.3156 47.3836 25.7473C45.2413 24.1789 42.6551 23.3335 40 23.3335C37.3449 23.3335 34.7588 24.1789 32.6164 25.7473C30.474 27.3156 28.8866 29.5254 28.0843 32.0564C27.282 34.5874 27.3065 37.3081 28.1542 39.8243C29.0019 42.3404 30.6287 44.5213 32.799 46.0509L35.5719 48.0113L31.7865 56.6654H48.2115L44.426 48.0113ZM31.9135 37.853L35.9552 36.8425C36.1795 37.7454 36.6995 38.5472 37.4323 39.1202C38.1651 39.6933 39.0687 40.0046 39.999 40.0046C40.9292 40.0046 41.8328 39.6933 42.5656 39.1202C43.2984 38.5472 43.8184 37.7454 44.0427 36.8425L48.0844 37.853C47.6312 39.654 46.5896 41.2521 45.1249 42.3939C43.6601 43.5357 41.8561 44.1558 39.999 44.1558C38.1418 44.1558 36.3378 43.5357 34.8731 42.3939C33.4083 41.2521 32.3668 39.654 31.9135 37.853Z" fill="#8C8C8C"/>
</svg>
