<svg width="24" height="24" viewBox="0 0 24 24" fill="none" xmlns="http://www.w3.org/2000/svg">
<path fill-rule="evenodd" clip-rule="evenodd" d="M12 2C17.522 2 22 6.47797 22 12C22 17.522 17.522 22 12 22C6.47797 22 2 17.522 2 12C2 6.47797 6.47797 2 12 2ZM15 9C14.6096 8.60952 13.9765 8.60952 13.586 8.99999L12 10.586L10.414 9.00005C10.0235 8.60959 9.39047 8.60959 9.00001 9.00005C8.60955 9.39051 8.60955 10.0236 9.00002 10.414L10.586 12L9 13.586C8.60954 13.9765 8.60954 14.6095 9 15C9.39047 15.3905 10.0235 15.3905 10.414 15L12 13.414L13.586 15C13.9765 15.3905 14.6095 15.3905 15 15C15.3905 14.6095 15.3905 13.9765 15 13.586L13.414 12L15 10.414C15.3905 10.0235 15.3905 9.39047 15 9Z" fill="#FF383C"/>
</svg>
