<svg width="48" height="48" viewBox="0 0 48 48" fill="none" xmlns="http://www.w3.org/2000/svg">
<path d="M5.99952 16.5282V16.5001C6.00037 13.8341 6.79058 11.228 8.27052 9.01043C9.75046 6.79288 11.8539 5.06317 14.3155 4.03941C16.7771 3.01565 19.4868 2.74367 22.1028 3.25778C24.7188 3.77189 27.124 5.04905 29.0151 6.92824C30.5032 6.19304 32.1656 5.88365 33.8185 6.03427C35.4714 6.18489 37.0504 6.78965 38.3811 7.7817C39.7117 8.77375 40.7421 10.1144 41.3584 11.6555C41.9746 13.1967 42.1527 14.8782 41.873 16.5142C42.2832 16.5524 42.6812 16.6747 43.0421 16.8735C43.403 17.0723 43.7191 17.3433 43.9706 17.6696C44.2222 17.996 44.4038 18.3706 44.5042 18.7702C44.6046 19.1698 44.6217 19.5858 44.5542 19.9923C43.198 28.1486 39.8464 33.3126 34.4995 35.4845V37.5001C34.4995 38.6936 34.0254 39.8382 33.1815 40.6821C32.3376 41.526 31.193 42.0001 29.9995 42.0001H17.9995C16.806 42.0001 15.6615 41.526 14.8175 40.6821C13.9736 39.8382 13.4995 38.6936 13.4995 37.5001V35.4845C8.15577 33.3126 4.80421 28.1486 3.44483 19.9923C3.37908 19.5964 3.39344 19.1913 3.48706 18.801C3.58068 18.4107 3.75166 18.0432 3.98987 17.7202C4.22808 17.3972 4.52868 17.1253 4.87388 16.9205C5.21907 16.7158 5.60184 16.5824 5.99952 16.5282ZM8.99952 16.5001H11.9995C11.9995 14.511 12.7897 12.6033 14.1962 11.1968C15.6027 9.79029 17.5104 9.00011 19.4995 9.00011C21.4886 9.00011 23.3963 9.79029 24.8028 11.1968C26.2093 12.6033 26.9995 14.511 26.9995 16.5001H29.9995C29.9995 13.7153 28.8933 11.0446 26.9241 9.07549C24.955 7.10636 22.2843 6.00011 19.4995 6.00011C16.7147 6.00011 14.044 7.10636 12.0749 9.07549C10.1058 11.0446 8.99952 13.7153 8.99952 16.5001ZM14.9995 16.5001H23.9995C23.9995 15.3066 23.5254 14.162 22.6815 13.3181C21.8376 12.4742 20.693 12.0001 19.4995 12.0001C18.306 12.0001 17.1615 12.4742 16.3175 13.3181C15.4736 14.162 14.9995 15.3066 14.9995 16.5001ZM35.5964 16.5001H38.812C39.0381 15.6134 39.0589 14.6869 38.8728 13.7909C38.6867 12.895 38.2986 12.0534 37.738 11.3301C37.1775 10.6068 36.4593 10.021 35.6382 9.61725C34.817 9.21348 33.9146 9.00241 32.9995 9.00011C32.3042 8.99888 31.6141 9.11945 30.9605 9.35636C31.4946 10.2163 31.9316 11.1329 32.2636 12.0892C32.8352 11.9467 33.4361 11.9754 33.9915 12.1717C34.547 12.368 35.0325 12.7233 35.3876 13.1933C35.7428 13.6633 35.9519 14.2274 35.989 14.8153C36.0261 15.4033 35.8896 15.9892 35.5964 16.5001ZM31.4995 36.0001H16.4995V37.5001C16.4995 37.8979 16.6576 38.2795 16.9389 38.5608C17.2202 38.8421 17.6017 39.0001 17.9995 39.0001H29.9995C30.3973 39.0001 30.7789 38.8421 31.0602 38.5608C31.3415 38.2795 31.4995 37.8979 31.4995 37.5001V36.0001ZM15.4448 33.0001H32.5542C37.312 31.472 40.3261 27.1407 41.6011 19.5001H6.39796C7.67296 27.1407 10.687 31.472 15.4448 33.0001Z" fill="#C5C5C6"/>
</svg>
