<svg width="24" height="24" viewBox="0 0 24 24" fill="none" xmlns="http://www.w3.org/2000/svg">
<path d="M11 17H15C15.2833 17 15.521 16.904 15.713 16.712C15.905 16.52 16.0007 16.2827 16 16C15.9993 15.7173 15.9033 15.48 15.712 15.288C15.5207 15.096 15.2833 15 15 15H11C10.7167 15 10.4793 15.096 10.288 15.288C10.0967 15.48 10.0007 15.7173 10 16C9.99933 16.2827 10.0953 16.5203 10.288 16.713C10.4807 16.9057 10.718 17.0013 11 17ZM8 13H12C12.2833 13 12.521 12.904 12.713 12.712C12.905 12.52 13.0007 12.2827 13 12C12.9993 11.7173 12.9033 11.48 12.712 11.288C12.5207 11.096 12.2833 11 12 11H8C7.71667 11 7.47933 11.096 7.288 11.288C7.09667 11.48 7.00067 11.7173 7 12C6.99933 12.2827 7.09533 12.5203 7.288 12.713C7.48067 12.9057 7.718 13.0013 8 13ZM11 9H15C15.2833 9 15.521 8.904 15.713 8.712C15.905 8.52 16.0007 8.28267 16 8C15.9993 7.71733 15.9033 7.48 15.712 7.288C15.5207 7.096 15.2833 7 15 7H11C10.7167 7 10.4793 7.096 10.288 7.288C10.0967 7.48 10.0007 7.71733 10 8C9.99933 8.28267 10.0953 8.52033 10.288 8.713C10.4807 8.90567 10.718 9.00133 11 9ZM5 21C4.45 21 3.97933 20.8043 3.588 20.413C3.19667 20.0217 3.00067 19.5507 3 19V5C3 4.45 3.196 3.97933 3.588 3.588C3.98 3.19667 4.45067 3.00067 5 3H19C19.55 3 20.021 3.196 20.413 3.588C20.805 3.98 21.0007 4.45067 21 5V19C21 19.55 20.8043 20.021 20.413 20.413C20.0217 20.805 19.5507 21.0007 19 21H5ZM5 19H19V5H5V19Z" fill="#00BF72"/>
</svg>
